# xmcd
#
# Track frame offsets:
#	150
#	16875
#	28590
#	45825
#	71150
#	86525
#	102825
#	119650
#	136700
#	146675
#	161475
#	178375
#
# Disc length: 2659 seconds
#
# Revision: 1
# Processed by: cddbd v1.5.2PL0 Copyright (c) Steve Scherf et al.
# Submitted via: audiograbber 1.83.01
#
DISCID=9e0a610c
DTITLE=Elliott, Col - Somethin Different
DYEAR=1900
DGENRE=
TTITLE0=Henry, Banjo and Me
TTITLE1=Works Out Easier That Way
TTITLE2=Dieseline Highway
TTITLE3=I Hear a Sound
TTITLE4=Smokin Again
TTITLE5=Gone Fishin
TTITLE6=Ain't Nobody's business
TTITLE7=Hankies From Nana
TTITLE8=The Sinner
TTITLE9=Only a Moment in Time
TTITLE10=Miss Approxmate
TTITLE11=Crazy dreams
EXTD=
EXTT0=
EXTT1=
EXTT2=
EXTT3=
EXTT4=
EXTT5=
EXTT6=
EXTT7=
EXTT8=
EXTT9=
EXTT10=
EXTT11=
PLAYORDER=
